<svg width="25" height="25" viewBox="0 0 25 25" fill="none" xmlns="http://www.w3.org/2000/svg">
<path d="M12.5 25C19.4036 25 25 19.4036 25 12.5C25 5.59644 19.4036 0 12.5 0C5.59644 0 0 5.59644 0 12.5C0 19.4036 5.59644 25 12.5 25Z" fill="#5267DF"/>
<path fill-rule="evenodd" clip-rule="evenodd" d="M9 9V19L12.54 15.56L16.078 19V9C16.078 8.46957 15.8673 7.96086 15.4922 7.58579C15.1171 7.21071 14.6084 7 14.078 7H11C10.4696 7 9.96086 7.21071 9.58579 7.58579C9.21071 7.96086 9 8.46957 9 9Z" fill="white"/>
</svg>
