<?xml version="1.0"?>
<svg xmlns="http://www.w3.org/2000/svg" id="Layer_1" enable-background="new 0 0 512 512" height="512px" viewBox="0 0 512 512" width="512px" class=""><g><g><g id="XMLID_10_"><g><g id="XMLID_1060_"><g id="XMLID_1061_"><g id="XMLID_1062_"><g id="XMLID_1063_"><g id="XMLID_1064_"><g id="XMLID_1065_"><g id="XMLID_1066_"><g id="XMLID_1067_"><g id="XMLID_1121_"><g id="XMLID_1139_"><g id="XMLID_1144_"><g id="XMLID_1159_"><g id="XMLID_1160_"><g id="XMLID_1161_"><circle cx="256" cy="256" fill="#5eefee" r="256" data-original="#5EEFEE" class="" style="fill:#FFFFFF" data-old_color="#5eefee"/></g></g></g></g></g></g></g></g></g></g></g></g></g></g></g></g><path d="m512 256c0-4.545-.123-9.061-.357-13.548l-118.221-118.221-269.191 269.191 118.221 118.221c4.487.234 9.003.357 13.548.357 141.385 0 256-114.615 256-256z" fill="#54c9fc" data-original="#54C9FC" class="" style="fill:#FFFFFF" data-old_color="#54c9fc"/><g><circle cx="256" cy="256" fill="#238cf8" r="190.395" data-original="#238CF8" class="" style="fill:#FFFFFF" data-old_color="#238cf8"/><path d="m446.39 256c0 105.15-85.24 190.39-190.39 190.39v-380.78c105.15 0 190.39 85.24 190.39 190.39z" fill="#0768dd" data-original="#0768DD" class="" style="fill:#FFFFFF" data-old_color="#0768dd"/><path d="m173.667 145.917v224.166l82.333-74.988 82.333 74.988v-224.166z" fill="#fedd55" data-original="#FEDD55" class="" style="fill:#023671" data-old_color="#fedd55"/><path d="m338.33 145.92v224.16l-82.33-74.98v-149.18z" fill="#fdb556" data-original="#FDB556" class="active-path" style="fill:#023671" data-old_color="#fdb556"/></g></g></g> </svg>
